HIERARCHY
ROOT pelvis
{
  OFFSET 0 100 0
  CHANNELS 6 Xposition Yposition Zposition Zrotation Xrotation Yrotation
  JOINT pelvis_right_femur
  {
    OFFSET -10.78128 -3.44521 -0.5502486
    CHANNELS 3 Zrotation Xrotation Yrotation
    JOINT right_femur_tibia
    {
      OFFSET -0.8047443 -44.0398 -0.1307829
      CHANNELS 3 Zrotation Xrotation Yrotation
      JOINT right_tibia_foot
      {
        OFFSET 3.006224 -47.83518 -5
        CHANNELS 3 Zrotation Xrotation Yrotation
        End Site
        {
          OFFSET 0 -5 15
        }
      }
    }
  }
  JOINT pelvis_left_femur
  {
    OFFSET 10.78128 -3.44521 -0.5502486
    CHANNELS 3 Zrotation Xrotation Yrotation
    JOINT left_femur_tibia
    {
      OFFSET 0.8047443 -44.0398 -0.1307829
      CHANNELS 3 Zrotation Xrotation Yrotation
      JOINT left_tibia_foot
      {
        OFFSET -4.370144 -48.10324 -4.275266
        CHANNELS 3 Zrotation Xrotation Yrotation
        End Site
        {
          OFFSET 0 -5 15
        }
      }
    }
  }
  JOINT pelvis_spine1
  {
    OFFSET 0 6.468898 -3.129235
    CHANNELS 3 Zrotation Xrotation Yrotation
    JOINT spine1
    {
      OFFSET 0 23.15396 4.99043
      CHANNELS 3 Zrotation Xrotation Yrotation
      JOINT spine2
      {
        OFFSET 0 20.79997 -5.064912
        CHANNELS 3 Zrotation Xrotation Yrotation
        JOINT neck
        {
          OFFSET 0 14.38658 9.616178
          CHANNELS 3 Zrotation Xrotation Yrotation
          End Site
          {
            OFFSET 0 20 0
          }
        }
      }
      JOINT right_manubrium
      {
        OFFSET -5.722621 16.35077 3.967754
        CHANNELS 3 Zrotation Xrotation Yrotation
        JOINT right_clavicle
        {
          OFFSET -13.16364 1.694482 -4.693211
          CHANNELS 3 Zrotation Xrotation Yrotation
          JOINT right_humerus
          {
            OFFSET -28.5034 -0.3100689 -2.792744
            CHANNELS 3 Zrotation Xrotation Yrotation
            JOINT right_radius
            {
              OFFSET -25.15693 0.02248979 -1.271978
              CHANNELS 3 Zrotation Xrotation Yrotation
              End Site
              {
                OFFSET -15 0 0
              }
            }
          }
        }
      }
      JOINT left_manubrium
      {
        OFFSET 5.722621 16.35077 3.967754
        CHANNELS 3 Zrotation Xrotation Yrotation
        JOINT left_clavicle
        {
          OFFSET 13.16364 1.694482 -4.693211
          CHANNELS 3 Zrotation Xrotation Yrotation
          JOINT left_humerus
          {
            OFFSET 29.39168 -1.063119 -2.237045
            CHANNELS 3 Zrotation Xrotation Yrotation
            JOINT left_radius
            {
              OFFSET 24.59957 -0.9528479 0.9047498
              CHANNELS 3 Zrotation Xrotation Yrotation
              End Site
              {
                OFFSET 15 -0 -0
              }
            }
          }
        }
      }
    }
  }
}
MOTION
Frames: 15
Frame Time: 0.0416666666667
4.776494 100.9817 270.6037 -0.1888509 -0.8971625 -4.223789 4.047445 8.999142 7.550778 -0 31.60855 -0 8.06979 -12.03802 -1.290785 0.904778 -31.40806 -3.888115 -0 26.74737 -0 -9.619997 -10.8052 18.68736 1.146851 -5.205341 8.792704 -2.460273 11.92869 -3.236855 1.71223 18.91489 6.671481 2.245048 -19.09686 7.691856 1.049126 -24.86734 11.18506 80.86752 19.51983 -5.272647 -0 0 25.72202 -23.17321 6.832209 12.45027 2.415884 -15.60715 -2.443268 -91.83541 23.69864 27.14931 0 0 -12.11392 -4.210878 2.494005 18.9714
5.036279 100.883 278.1743 -0.1922764 -0.9066175 -4.318017 3.525719 9.032288 6.758893 -0 39.29687 -0 8.236175 -8.881377 -2.447431 -0.645993 -30.05034 -5.169731 -0 27.12589 -0 -9.135761 -10.5642 18.40369 0.5677303 -6.357061 8.859278 -2.373974 11.90093 -3.03303 1.983475 19.14113 6.498255 2.18375 -19.21325 7.881437 1.173818 -23.83812 10.83423 81.84235 19.27345 -6.328193 -0 0 24.85211 -22.98 6.75252 12.00126 2.633535 -14.92106 -2.195473 -91.75725 24.05665 26.93874 0 0 -11.83971 -4.0987 2.55647 19.31305
5.563679 101.6671 285.4562 -0.169454 -0.8208035 -3.612221 3.744273 4.636008 6.177774 -0 46.80403 -0 7.25646 -9.463321 -2.74357 -2.05895 -26.71591 -6.164683 -0 28.1373 -0 -8.411274 -11.45923 17.97267 0.273354 -7.477172 8.390305 -2.369525 12.01907 -3.072021 2.155502 19.67739 6.380459 2.087779 -19.27591 8.083245 1.800409 -22.74659 10.61913 82.87343 19.20959 -7.824684 -0 0 23.11842 -22.51303 6.773385 11.28923 2.395999 -14.88855 -2.164768 -90.97167 24.61124 25.85495 0 0 -11.83977 -3.812048 2.723483 19.32897
6.001628 102.5562 291.9812 -0.1347381 -0.6830806 -2.474735 2.765433 -0.3519628 5.367201 -0 54.64475 -0 6.454585 -9.24942 -5.148786 -2.941867 -22.56047 -6.686249 -0 27.92636 -0 -7.562119 -13.03947 17.40388 0.03365685 -8.202865 7.435405 -2.391394 12.1026 -3.385526 2.147475 20.2541 6.430973 1.901562 -19.17 8.358504 2.542427 -21.72014 10.60667 84.06772 19.29395 -9.381069 -0 0 21.21097 -21.80135 6.84041 10.48151 2.070781 -15.41685 -2.466535 -89.54451 25.34376 23.73686 0 0 -12.21776 -3.379293 2.990077 19.117
6.482215 104.0383 298.2354 -0.09979661 -0.5327845 -1.234436 2.339597 -7.07504 5.054336 -0 59.09729 -0 5.728694 -9.299618 -7.055476 -3.545056 -18.00682 -7.04572 -0 26.70801 -0 -6.960713 -14.36007 16.83453 -0.08455639 -8.737747 6.049973 -2.220439 12.21361 -4.081074 1.928927 20.93967 6.700136 1.614065 -18.8226 8.749728 3.19346 -20.78096 10.46682 85.44447 19.41327 -10.99665 -0 0 19.6168 -20.97037 6.896508 9.814174 1.775118 -16.04681 -2.96688 -87.95408 26.11097 20.99232 0 0 -12.8592 -2.888776 3.344053 18.76593
6.940279 105.1621 303.6531 -0.08347067 -0.4562181 -0.6075569 2.005126 -12.71656 4.697655 -0 59.60961 -0 5.69189 -7.881315 -8.784346 -3.797333 -13.93815 -7.480163 -0 24.82858 -0 -6.571984 -15.43697 16.25261 -0.3893834 -8.850009 4.677239 -1.883939 12.01751 -5.030922 1.826606 21.6246 6.971634 1.410765 -18.1805 9.21229 3.151718 -20.02436 10.10225 86.71904 19.50089 -12.39756 -0 0 18.66255 -20.21645 6.916385 9.344472 1.990342 -16.88165 -3.592966 -86.38589 26.81921 17.71728 0 0 -14.12144 -2.342526 3.750451 18.24692
7.402522 106.1016 309.2311 -0.03368376 -0.2034304 1.480728 2.228148 -19.29225 5.138554 -0 56.16535 -0 5.027481 -6.677847 -10.10633 -4.070964 -8.877095 -7.711045 -0 21.93402 -0 -6.290038 -16.57007 15.35379 -0.8089237 -9.061992 3.080669 -1.286029 11.64993 -6.511916 1.920445 22.20489 7.109198 1.329596 -17.53741 9.636804 2.512775 -19.10274 9.28961 87.65791 19.46226 -14.00158 -0 0 18.04132 -19.64075 6.853107 9.03357 2.568486 -17.74852 -4.191734 -84.69509 27.43298 14.0373 0 0 -16.05266 -1.735173 4.204655 17.4469
7.716658 106.3067 314.5455 0.00454776 0.03037359 3.408462 1.709387 -23.7025 5.201285 -0 49.0803 -0 3.996883 -5.427796 -11.08562 -3.974252 -4.450972 -7.883094 -0 19.32477 -0 -6.036079 -17.87355 14.42212 -1.335527 -8.937181 1.877599 -0.5348 11.15362 -7.791224 2.166063 22.51318 7.08221 1.326342 -17.06036 9.950569 1.746443 -18.14836 8.441977 88.26629 19.35613 -15.64459 -0 0 17.24375 -19.09699 6.722619 8.610154 3.396354 -18.65181 -4.546581 -82.88974 27.86323 10.20764 0 0 -18.60916 -1.02954 4.676734 16.35036
7.969307 105.9515 319.723 0.02186726 0.1540372 4.428827 0.2806005 -27.57747 4.440731 -0 38.73573 -0 2.768634 -4.815593 -12.28856 -3.713518 -0.4452097 -7.956639 -0 17.59564 -0 -5.821302 -19.40835 13.57329 -1.71892 -8.270017 1.182749 0.2233268 10.66543 -8.614762 2.432834 22.49945 6.9383 1.330284 -16.87719 10.10854 1.201285 -17.20187 7.991047 88.60177 19.27276 -17.20576 -0 0 15.94962 -18.50846 6.568178 7.917592 4.243932 -19.66035 -4.844231 -81.00208 28.17328 6.432417 0 0 -21.34791 -0.2692678 5.146196 15.1071
8.360558 104.7872 325.5294 0.04311134 0.3309341 5.88905 -0.5529801 -30.71811 4.46331 -0 29.65514 -0 1.239625 -5.060682 -13.44003 -3.449803 3.345203 -8.071245 -0 16.91104 -0 -5.6599 -21.10472 12.82136 -1.796485 -8.106453 0.5428862 0.7726455 10.3021 -9.217309 2.719453 22.52185 6.629909 1.371412 -16.79389 10.05156 0.6120153 -16.02641 7.67003 88.88379 19.2489 -18.76463 -0 0 14.24721 -17.79592 6.457884 6.983342 5.002533 -20.70019 -4.811724 -79.33506 28.30824 2.98719 0 0 -24.12617 0.5391839 5.63188 13.8161
8.320306 103.5623 331.4944 0.04909924 0.385492 6.343916 -0.8228336 -34.50909 3.998821 -0 23.51833 -0 -0.3734652 -5.65553 -14.00161 -3.01897 6.743337 -8.119571 -0 17.37649 -0 -5.692405 -22.45508 12.40986 -1.985096 -8.00315 0.5527952 1.19498 9.861303 -9.06171 3.098192 22.3296 6.391707 1.449314 -17.2197 10.17337 0.4831017 -14.7767 7.825982 89.27856 19.29497 -20.11899 -0 0 12.16664 -16.87639 6.433771 5.790187 5.527816 -21.65091 -4.6618 -77.86075 28.34464 0.3103755 0 0 -26.24843 1.341677 6.067744 12.6517
8.242392 102.4603 337.0156 0.05047331 0.395869 6.434923 -0.2537708 -36.08701 3.959404 -0 20.12364 -0 -2.154963 -6.662635 -14.08611 -2.676446 9.268487 -8.090832 -0 19.0688 -0 -6.028969 -22.89189 12.28146 -1.835036 -7.509684 0.7906909 1.466009 9.588483 -8.45412 3.284641 22.35215 6.16341 1.466761 -17.60901 10.12622 0.6985886 -14.15558 8.392647 89.48614 19.4999 -20.7156 -0 0 10.19123 -15.72031 6.490222 4.460034 5.709491 -22.47093 -4.534759 -76.60839 28.36797 -2.013578 0 0 -27.595 2.039183 6.42898 11.72416
8.090625 101.5998 343.2987 0.05508385 0.440992 6.812392 1.000004 -35.24052 4.38625 -0 21.22193 -0 -3.751651 -6.79149 -14.15595 -2.181913 11.17516 -8.114862 -0 22.32046 -0 -6.741138 -21.86906 12.43679 -1.647114 -7.585182 0.6803387 1.555254 9.51608 -8.134514 3.314542 22.38898 5.990487 1.438359 -18.02934 9.987392 0.9380213 -13.24458 8.596839 89.93993 19.62556 -21.33058 -0 0 8.466323 -14.51946 6.554007 3.388141 5.748198 -22.78391 -4.232894 -76.14158 28.56318 -2.973311 0 0 -27.79467 2.531999 6.679213 11.22291
7.891192 101.1384 350.2876 0.06154367 0.5118916 7.403005 2.648373 -33.64267 5.593571 -0 24.0792 -0 -5.037039 -6.145606 -13.60044 -1.652409 12.03681 -8.170717 -0 27.60269 -0 -7.783251 -19.01161 13.08252 -1.417329 -8.25609 0.4279163 1.521609 9.519914 -8.065491 3.282936 22.50589 5.842322 1.418919 -18.45263 9.798118 1.021001 -12.35818 8.569328 90.37159 19.7017 -21.60737 -0 0 7.411646 -13.42475 6.600128 2.607618 5.681582 -22.35575 -3.935504 -76.61648 28.99883 -2.483414 0 0 -26.91765 2.756019 6.84578 11.13919
7.744795 101.3731 357.3096 0.064506 0.5472036 7.699655 3.229445 -31.34004 7.133656 -0 27.65587 -0 -6.460808 -6.079218 -12.88288 -1.510361 11.06215 -7.931696 -0 35.26426 -0 -8.929976 -14.63684 14.51755 -1.094354 -9.062747 0.2935889 1.449167 9.601564 -7.964115 3.277079 22.81909 5.634833 1.453632 -18.83671 9.531341 1.137614 -12.00632 8.655536 90.28935 19.86724 -21.15375 -0 0 7.015469 -12.54079 6.608899 2.113056 5.258694 -21.56866 -3.72164 -77.88413 29.63463 -0.8534011 0 0 -25.02229 2.67365 6.945593 11.43775
